<svg width="95" height="19" viewBox="0 0 95 19" fill="none" xmlns="http://www.w3.org/2000/svg">
<g clip-path="url(#clip0_229_104)">
<path fill-rule="evenodd" clip-rule="evenodd" d="M8.86651 2.72769L10.5486 7.9046H15.9918L11.5883 11.104L13.2704 16.2809L8.86651 13.0815L4.46296 16.2809L6.14505 11.104L1.74121 7.9046H7.18441L8.86651 2.72769Z" fill="#FE611D"/>
</g>
<g clip-path="url(#clip1_229_104)">
<path fill-rule="evenodd" clip-rule="evenodd" d="M28.5003 2.72769L30.1824 7.9046H35.6256L31.222 11.104L32.9041 16.2809L28.5003 13.0815L24.0967 16.2809L25.7788 11.104L21.375 7.9046H26.8182L28.5003 2.72769Z" fill="#FE611D"/>
</g>
<g clip-path="url(#clip2_229_104)">
<path fill-rule="evenodd" clip-rule="evenodd" d="M47.5003 2.72769L49.1824 7.9046H54.6256L50.222 11.104L51.9041 16.2809L47.5003 13.0815L43.0967 16.2809L44.7788 11.104L40.375 7.9046H45.8182L47.5003 2.72769Z" fill="#FE611D"/>
</g>
<g clip-path="url(#clip3_229_104)">
<path fill-rule="evenodd" clip-rule="evenodd" d="M66.5003 2.72769L68.1824 7.9046H73.6256L69.222 11.104L70.9041 16.2809L66.5003 13.0815L62.0967 16.2809L63.7788 11.104L59.375 7.9046H64.8182L66.5003 2.72769Z" fill="#FE611D"/>
</g>
<g clip-path="url(#clip4_229_104)">
<path fill-rule="evenodd" clip-rule="evenodd" d="M85.5003 2.72769L87.1824 7.9046H92.6256L88.222 11.104L89.9041 16.2809L85.5003 13.0815L81.0967 16.2809L82.7788 11.104L78.375 7.9046H83.8182L85.5003 2.72769Z" fill="#FE611D"/>
</g>
<defs>
<clipPath id="clip0_229_104">
<rect width="19" height="19" fill="white"/>
</clipPath>
<clipPath id="clip1_229_104">
<rect width="19" height="19" fill="white" transform="translate(19)"/>
</clipPath>
<clipPath id="clip2_229_104">
<rect width="19" height="19" fill="white" transform="translate(38)"/>
</clipPath>
<clipPath id="clip3_229_104">
<rect width="19" height="19" fill="white" transform="translate(57)"/>
</clipPath>
<clipPath id="clip4_229_104">
<rect width="19" height="19" fill="white" transform="translate(76)"/>
</clipPath>
</defs>
</svg>
