<svg width="76" height="31" viewBox="0 0 76 31" fill="none" xmlns="http://www.w3.org/2000/svg">
<rect width="76" height="31" fill="#FFF856"/>
<path d="M9.8608 20V11.2727H13.2017C13.8324 11.2727 14.3565 11.3722 14.7741 11.571C15.1946 11.767 15.5085 12.0355 15.7159 12.3764C15.9261 12.7173 16.0312 13.1037 16.0312 13.5355C16.0312 13.8906 15.9631 14.1946 15.8267 14.4474C15.6903 14.6974 15.5071 14.9006 15.277 15.0568C15.0469 15.2131 14.7898 15.3253 14.5057 15.3935V15.4787C14.8153 15.4957 15.1122 15.5909 15.3963 15.7642C15.6832 15.9347 15.9176 16.1761 16.0994 16.4886C16.2813 16.8011 16.3722 17.179 16.3722 17.6222C16.3722 18.0739 16.2628 18.4801 16.044 18.8409C15.8253 19.1989 15.4957 19.4815 15.0554 19.6889C14.6151 19.8963 14.0611 20 13.3935 20H9.8608ZM11.4418 18.679H13.142C13.7159 18.679 14.1293 18.5696 14.3821 18.3509C14.6378 18.1293 14.7656 17.8452 14.7656 17.4986C14.7656 17.2401 14.7017 17.0071 14.5739 16.7997C14.446 16.5895 14.2642 16.4247 14.0284 16.3054C13.7926 16.1832 13.5114 16.1222 13.1847 16.1222H11.4418V18.679ZM11.4418 14.9844H13.0057C13.2784 14.9844 13.5241 14.9347 13.7429 14.8352C13.9616 14.733 14.1335 14.5895 14.2585 14.4048C14.3864 14.2173 14.4503 13.9957 14.4503 13.7401C14.4503 13.402 14.331 13.1236 14.0923 12.9048C13.8565 12.6861 13.5057 12.5767 13.0398 12.5767H11.4418V14.9844ZM20.5771 20.1278C19.9208 20.1278 19.354 19.9915 18.8768 19.7188C18.4023 19.4432 18.0373 19.054 17.7816 18.5511C17.5259 18.0455 17.3981 17.4503 17.3981 16.7656C17.3981 16.0923 17.5259 15.5014 17.7816 14.9929C18.0401 14.4815 18.4009 14.0838 18.864 13.7997C19.3271 13.5128 19.8711 13.3693 20.4961 13.3693C20.8995 13.3693 21.2802 13.4347 21.6381 13.5653C21.9989 13.6932 22.3171 13.892 22.5927 14.1619C22.8711 14.4318 23.0898 14.7756 23.2489 15.1932C23.408 15.608 23.4876 16.1023 23.4876 16.6761V17.1491H18.1225V16.1094H22.0089C22.006 15.8139 21.9421 15.5511 21.8171 15.321C21.6921 15.0881 21.5174 14.9048 21.293 14.7713C21.0714 14.6378 20.8129 14.571 20.5174 14.571C20.2021 14.571 19.9251 14.6477 19.6864 14.8011C19.4478 14.9517 19.2617 15.1506 19.1282 15.3977C18.9975 15.642 18.9308 15.9105 18.9279 16.2031V17.1108C18.9279 17.4915 18.9975 17.8182 19.1367 18.0909C19.2759 18.3608 19.4705 18.5682 19.7205 18.7131C19.9705 18.8551 20.2631 18.9261 20.5984 18.9261C20.8228 18.9261 21.0259 18.8949 21.2077 18.8324C21.3896 18.767 21.5472 18.6719 21.6808 18.5469C21.8143 18.4219 21.9151 18.267 21.9833 18.0824L23.4237 18.2443C23.3327 18.625 23.1594 18.9574 22.9038 19.2415C22.6509 19.5227 22.3271 19.7415 21.9322 19.8977C21.5373 20.0511 21.0856 20.1278 20.5771 20.1278ZM29.9659 15.1847L28.5597 15.3381C28.5199 15.196 28.4503 15.0625 28.3509 14.9375C28.2543 14.8125 28.1236 14.7116 27.9588 14.6349C27.794 14.5582 27.5923 14.5199 27.3537 14.5199C27.0327 14.5199 26.7628 14.5895 26.544 14.7287C26.3281 14.8679 26.2216 15.0483 26.2244 15.2699C26.2216 15.4602 26.2912 15.6151 26.4332 15.7344C26.5781 15.8537 26.8168 15.9517 27.1491 16.0284L28.2656 16.267C28.8849 16.4006 29.3452 16.6122 29.6463 16.902C29.9503 17.1918 30.1037 17.571 30.1065 18.0398C30.1037 18.4517 29.983 18.8153 29.7443 19.1307C29.5085 19.4432 29.1804 19.6875 28.7599 19.8636C28.3395 20.0398 27.8565 20.1278 27.3111 20.1278C26.5099 20.1278 25.8651 19.9602 25.3764 19.625C24.8878 19.2869 24.5966 18.8168 24.5028 18.2145L26.0071 18.0696C26.0753 18.3651 26.2202 18.5881 26.4418 18.7386C26.6634 18.8892 26.9517 18.9645 27.3068 18.9645C27.6733 18.9645 27.9673 18.8892 28.1889 18.7386C28.4134 18.5881 28.5256 18.402 28.5256 18.1804C28.5256 17.9929 28.4531 17.8381 28.3082 17.7159C28.1662 17.5937 27.9446 17.5 27.6435 17.4347L26.527 17.2003C25.8991 17.0696 25.4347 16.8494 25.1335 16.5398C24.8324 16.2273 24.6832 15.8324 24.6861 15.3551C24.6832 14.9517 24.7926 14.6023 25.0142 14.3068C25.2386 14.0085 25.5497 13.7784 25.9474 13.6165C26.348 13.4517 26.8097 13.3693 27.3324 13.3693C28.0994 13.3693 28.7031 13.5327 29.1435 13.8594C29.5866 14.1861 29.8608 14.6278 29.9659 15.1847ZM34.647 13.4545V14.6477H30.8842V13.4545H34.647ZM31.8132 11.8864H33.3558V18.0312C33.3558 18.2386 33.3871 18.3977 33.4496 18.5085C33.5149 18.6165 33.6001 18.6903 33.7053 18.7301C33.8104 18.7699 33.9268 18.7898 34.0547 18.7898C34.1513 18.7898 34.2393 18.7827 34.3189 18.7685C34.4013 18.7543 34.4638 18.7415 34.5064 18.7301L34.7663 19.9361C34.6839 19.9645 34.5661 19.9957 34.4126 20.0298C34.2621 20.0639 34.0774 20.0838 33.8587 20.0895C33.4723 20.1009 33.1243 20.0426 32.8146 19.9148C32.505 19.7841 32.2592 19.5824 32.0774 19.3097C31.8984 19.0369 31.8104 18.696 31.8132 18.2869V11.8864ZM41.0167 15.1847L39.6104 15.3381C39.5707 15.196 39.5011 15.0625 39.4016 14.9375C39.305 14.8125 39.1744 14.7116 39.0096 14.6349C38.8448 14.5582 38.6431 14.5199 38.4045 14.5199C38.0835 14.5199 37.8136 14.5895 37.5948 14.7287C37.3789 14.8679 37.2724 15.0483 37.2752 15.2699C37.2724 15.4602 37.342 15.6151 37.484 15.7344C37.6289 15.8537 37.8675 15.9517 38.1999 16.0284L39.3164 16.267C39.9357 16.4006 40.396 16.6122 40.6971 16.902C41.0011 17.1918 41.1545 17.571 41.1573 18.0398C41.1545 18.4517 41.0337 18.8153 40.7951 19.1307C40.5593 19.4432 40.2312 19.6875 39.8107 19.8636C39.3903 20.0398 38.9073 20.1278 38.3619 20.1278C37.5607 20.1278 36.9158 19.9602 36.4272 19.625C35.9386 19.2869 35.6474 18.8168 35.5536 18.2145L37.0579 18.0696C37.1261 18.3651 37.271 18.5881 37.4925 18.7386C37.7141 18.8892 38.0025 18.9645 38.3576 18.9645C38.7241 18.9645 39.0181 18.8892 39.2397 18.7386C39.4641 18.5881 39.5763 18.402 39.5763 18.1804C39.5763 17.9929 39.5039 17.8381 39.359 17.7159C39.217 17.5937 38.9954 17.5 38.6942 17.4347L37.5778 17.2003C36.9499 17.0696 36.4854 16.8494 36.1843 16.5398C35.8832 16.2273 35.734 15.8324 35.7369 15.3551C35.734 14.9517 35.8434 14.6023 36.065 14.3068C36.2894 14.0085 36.6005 13.7784 36.9982 13.6165C37.3988 13.4517 37.8604 13.3693 38.3832 13.3693C39.1502 13.3693 39.7539 13.5327 40.1942 13.8594C40.6374 14.1861 40.9116 14.6278 41.0167 15.1847ZM45.3271 20.1278C44.6708 20.1278 44.104 19.9915 43.6268 19.7188C43.1523 19.4432 42.7873 19.054 42.5316 18.5511C42.2759 18.0455 42.1481 17.4503 42.1481 16.7656C42.1481 16.0923 42.2759 15.5014 42.5316 14.9929C42.7901 14.4815 43.1509 14.0838 43.614 13.7997C44.0771 13.5128 44.6211 13.3693 45.2461 13.3693C45.6495 13.3693 46.0302 13.4347 46.3881 13.5653C46.7489 13.6932 47.0671 13.892 47.3427 14.1619C47.6211 14.4318 47.8398 14.7756 47.9989 15.1932C48.158 15.608 48.2376 16.1023 48.2376 16.6761V17.1491H42.8725V16.1094H46.7589C46.756 15.8139 46.6921 15.5511 46.5671 15.321C46.4421 15.0881 46.2674 14.9048 46.043 14.7713C45.8214 14.6378 45.5629 14.571 45.2674 14.571C44.9521 14.571 44.6751 14.6477 44.4364 14.8011C44.1978 14.9517 44.0117 15.1506 43.8782 15.3977C43.7475 15.642 43.6808 15.9105 43.6779 16.2031V17.1108C43.6779 17.4915 43.7475 17.8182 43.8867 18.0909C44.0259 18.3608 44.2205 18.5682 44.4705 18.7131C44.7205 18.8551 45.0131 18.9261 45.3484 18.9261C45.5728 18.9261 45.7759 18.8949 45.9577 18.8324C46.1396 18.767 46.2972 18.6719 46.4308 18.5469C46.5643 18.4219 46.6651 18.267 46.7333 18.0824L48.1737 18.2443C48.0827 18.625 47.9094 18.9574 47.6538 19.2415C47.4009 19.5227 47.0771 19.7415 46.6822 19.8977C46.2873 20.0511 45.8356 20.1278 45.3271 20.1278ZM51.0852 11.2727V20H49.5426V11.2727H51.0852ZM54.2141 11.2727V20H52.6715V11.2727H54.2141ZM58.6982 20.1278C58.0419 20.1278 57.4751 19.9915 56.9979 19.7188C56.5234 19.4432 56.1584 19.054 55.9027 18.5511C55.647 18.0455 55.5192 17.4503 55.5192 16.7656C55.5192 16.0923 55.647 15.5014 55.9027 14.9929C56.1612 14.4815 56.522 14.0838 56.9851 13.7997C57.4482 13.5128 57.9922 13.3693 58.6172 13.3693C59.0206 13.3693 59.4013 13.4347 59.7592 13.5653C60.12 13.6932 60.4382 13.892 60.7138 14.1619C60.9922 14.4318 61.2109 14.7756 61.37 15.1932C61.5291 15.608 61.6087 16.1023 61.6087 16.6761V17.1491H56.2436V16.1094H60.13C60.1271 15.8139 60.0632 15.5511 59.9382 15.321C59.8132 15.0881 59.6385 14.9048 59.4141 14.7713C59.1925 14.6378 58.9339 14.571 58.6385 14.571C58.3232 14.571 58.0462 14.6477 57.8075 14.8011C57.5689 14.9517 57.3828 15.1506 57.2493 15.3977C57.1186 15.642 57.0518 15.9105 57.049 16.2031V17.1108C57.049 17.4915 57.1186 17.8182 57.2578 18.0909C57.397 18.3608 57.5916 18.5682 57.8416 18.7131C58.0916 18.8551 58.3842 18.9261 58.7195 18.9261C58.9439 18.9261 59.147 18.8949 59.3288 18.8324C59.5107 18.767 59.6683 18.6719 59.8018 18.5469C59.9354 18.4219 60.0362 18.267 60.1044 18.0824L61.5447 18.2443C61.4538 18.625 61.2805 18.9574 61.0249 19.2415C60.772 19.5227 60.4482 19.7415 60.0533 19.8977C59.6584 20.0511 59.2067 20.1278 58.6982 20.1278ZM62.9137 20V13.4545H64.4094V14.5455H64.4776C64.5969 14.1676 64.8015 13.8764 65.0913 13.6719C65.3839 13.4645 65.7177 13.3608 66.0927 13.3608C66.1779 13.3608 66.2731 13.3651 66.3782 13.3736C66.4862 13.3793 66.5756 13.3892 66.6467 13.4034V14.8224C66.5813 14.7997 66.4776 14.7798 66.3356 14.7628C66.1964 14.7429 66.0614 14.733 65.9308 14.733C65.6495 14.733 65.3967 14.794 65.1722 14.9162C64.9506 15.0355 64.7759 15.2017 64.6481 15.4148C64.5202 15.6278 64.4563 15.8736 64.4563 16.152V20H62.9137Z" fill="black"/>
</svg>
