<svg width="11" height="15" viewBox="0 0 11 15" fill="none" xmlns="http://www.w3.org/2000/svg">
<path d="M0.128995 15V0.454545H5.69718C6.74831 0.454545 7.62189 0.620265 8.31792 0.951704C9.01867 1.27841 9.54187 1.72585 9.88752 2.29403C10.2379 2.86222 10.4131 3.50616 10.4131 4.22585C10.4131 4.81771 10.2994 5.32434 10.0722 5.74574C9.8449 6.1624 9.53951 6.50095 9.15598 6.76136C8.77246 7.02178 8.34396 7.20881 7.87047 7.32244V7.46449C8.38657 7.4929 8.88136 7.65151 9.35485 7.94034C9.83307 8.22443 10.2237 8.62689 10.5267 9.14773C10.8298 9.66856 10.9813 10.2983 10.9813 11.0369C10.9813 11.7898 10.799 12.4669 10.4344 13.0682C10.0698 13.6648 9.52057 14.1359 8.78667 14.4815C8.05276 14.8272 7.12947 15 6.01678 15H0.128995ZM2.76394 12.7983H5.59775C6.55418 12.7983 7.24311 12.616 7.66451 12.2514C8.09064 11.8821 8.30371 11.4086 8.30371 10.831C8.30371 10.4001 8.19718 10.0118 7.98411 9.66619C7.77104 9.31581 7.46801 9.04119 7.07502 8.84233C6.68203 8.63873 6.21328 8.53693 5.66877 8.53693H2.76394V12.7983ZM2.76394 6.64062H5.37047C5.82502 6.64062 6.23458 6.55777 6.59917 6.39205C6.96375 6.22159 7.25021 5.98248 7.45854 5.67472C7.67161 5.36222 7.77814 4.9929 7.77814 4.56676C7.77814 4.00331 7.57928 3.5393 7.18155 3.17472C6.78856 2.81013 6.20381 2.62784 5.42729 2.62784H2.76394V6.64062Z" fill="#6F6F6F"/>
</svg>
