<svg width="64" height="64" viewBox="0 0 64 64" fill="none" xmlns="http://www.w3.org/2000/svg">
<path d="M55.5 8H10.5C9.83696 8 9.20107 8.26339 8.73223 8.73223C8.26339 9.20107 8 9.83696 8 10.5V38.8333C8 39.4964 8.26339 40.1323 8.73223 40.6011C9.20107 41.0699 9.83696 41.3333 10.5 41.3333H55.5C56.163 41.3333 56.7989 41.0699 57.2678 40.6011C57.7366 40.1323 58 39.4964 58 38.8333V10.5C58 9.83696 57.7366 9.20107 57.2678 8.73223C56.7989 8.26339 56.163 8 55.5 8ZM53 36.3333H32.9358C32.729 34.0281 31.667 31.8837 29.9589 30.3219C28.2507 28.7601 26.0199 27.8941 23.7054 27.8941C21.3909 27.8941 19.1602 28.7601 17.452 30.3219C15.7438 31.8837 14.6818 34.0281 14.475 36.3333H13V13H53V36.3333Z" fill="black"/>
<path d="M33.8817 30.4045C33.8287 30.5531 33.8189 30.7137 33.8535 30.8676C33.8882 31.0215 33.9658 31.1624 34.0773 31.274C34.1889 31.3855 34.3298 31.4631 34.4837 31.4977C34.6376 31.5324 34.7982 31.5226 34.9467 31.4695L38.0001 30.3779C39.7621 31.4038 41.8373 31.7533 43.8382 31.3611C45.839 30.9688 47.6287 29.8616 48.8729 28.2463C50.1171 26.631 50.7308 24.618 50.5993 22.5833C50.4678 20.5486 49.6002 18.6313 48.1584 17.1895C46.7167 15.7478 44.7994 14.8801 42.7647 14.7487C40.73 14.6172 38.717 15.2308 37.1017 16.475C35.4863 17.7192 34.3792 19.5089 33.9869 21.5098C33.5946 23.5106 33.9441 25.5859 34.9701 27.3479L33.8817 30.4045ZM42.2259 16.3995C43.2731 16.3987 44.306 16.6424 45.2424 17.1113C46.1788 17.5801 46.9928 18.2611 47.6195 19.1001C48.2463 19.939 48.6684 20.9127 48.8524 21.9436C49.0364 22.9745 48.9772 24.0342 48.6794 25.0381C48.3815 26.0421 47.8534 26.9626 47.137 27.7265C46.4207 28.4903 45.5358 29.0763 44.553 29.4378C43.5702 29.7993 42.5165 29.9263 41.4759 29.8087C40.4353 29.6911 39.4366 29.3321 38.5592 28.7604C38.4513 28.6907 38.3287 28.6469 38.2011 28.6325C38.0734 28.618 37.9442 28.6333 37.8234 28.677L36.0467 29.3112L36.6817 27.5345C36.7249 27.4135 36.7395 27.284 36.7243 27.1564C36.7091 27.0287 36.6646 26.9063 36.5942 26.7987C35.9328 25.7839 35.5578 24.6093 35.5088 23.399C35.4598 22.1887 35.7387 20.9876 36.3159 19.9227C36.8931 18.8578 37.7473 17.9686 38.7882 17.349C39.829 16.7294 41.0179 16.4026 42.2292 16.4029L42.2259 16.3995Z" fill="black"/>
<path d="M14.6667 48.8337C16.0474 48.8337 17.1667 47.7145 17.1667 46.3337C17.1667 44.953 16.0474 43.8337 14.6667 43.8337C13.286 43.8337 12.1667 44.953 12.1667 46.3337C12.1667 47.7145 13.286 48.8337 14.6667 48.8337Z" fill="black"/>
<path d="M8.20142 57.1665C8.20142 57.3875 8.28921 57.5994 8.44549 57.7557C8.60177 57.912 8.81374 57.9998 9.03475 57.9998H20.0423C20.2633 57.9998 20.4752 57.912 20.6315 57.7557C20.7878 57.5994 20.8756 57.3875 20.8756 57.1665C20.8756 55.4858 20.2079 53.8739 19.0195 52.6855C17.8311 51.497 16.2192 50.8294 14.5385 50.8294C12.8578 50.8294 11.2459 51.497 10.0575 52.6855C8.86907 53.8739 8.20142 55.4858 8.20142 57.1665Z" fill="black"/>
<path d="M32.9996 48.8337C34.3803 48.8337 35.4996 47.7145 35.4996 46.3337C35.4996 44.953 34.3803 43.8337 32.9996 43.8337C31.6189 43.8337 30.4996 44.953 30.4996 46.3337C30.4996 47.7145 31.6189 48.8337 32.9996 48.8337Z" fill="black"/>
<path d="M26.5364 57.1665C26.5364 57.3875 26.6242 57.5994 26.7805 57.7557C26.9367 57.912 27.1487 57.9998 27.3697 57.9998H38.3772C38.5982 57.9998 38.8102 57.912 38.9665 57.7557C39.1227 57.5994 39.2105 57.3875 39.2105 57.1665C39.2105 55.4858 38.5429 53.8739 37.3545 52.6855C36.166 51.497 34.5542 50.8294 32.8735 50.8294C31.1928 50.8294 29.5809 51.497 28.3925 52.6855C27.204 53.8739 26.5364 55.4858 26.5364 57.1665Z" fill="black"/>
<path d="M51.3325 48.8337C52.7132 48.8337 53.8325 47.7145 53.8325 46.3337C53.8325 44.953 52.7132 43.8337 51.3325 43.8337C49.9518 43.8337 48.8325 44.953 48.8325 46.3337C48.8325 47.7145 49.9518 48.8337 51.3325 48.8337Z" fill="black"/>
<path d="M44.8693 57.1665C44.8693 57.3875 44.9571 57.5994 45.1134 57.7557C45.2697 57.912 45.4816 57.9998 45.7027 57.9998H56.7102C56.9312 57.9998 57.1431 57.912 57.2994 57.7557C57.4557 57.5994 57.5435 57.3875 57.5435 57.1665C57.5435 55.4858 56.8758 53.8739 55.6874 52.6855C54.499 51.497 52.8871 50.8294 51.2064 50.8294C49.5257 50.8294 47.9138 51.497 46.7254 52.6855C45.537 53.8739 44.8693 55.4858 44.8693 57.1665Z" fill="black"/>
<path d="M23.9014 23.9448C24.5717 23.9448 25.227 23.746 25.7844 23.3736C26.3417 23.0011 26.7761 22.4718 27.0326 21.8524C27.2891 21.2331 27.3562 20.5516 27.2254 19.8941C27.0945 19.2367 26.7716 18.6328 26.2976 18.1588C25.8235 17.6849 25.2195 17.3622 24.5621 17.2315C23.9046 17.1008 23.2231 17.1681 22.6038 17.4247C21.9845 17.6813 21.4553 18.1159 21.083 18.6733C20.7107 19.2308 20.512 19.8861 20.5122 20.5565C20.5133 21.4549 20.8708 22.3162 21.5061 22.9515C22.1415 23.5867 23.0029 23.9439 23.9014 23.9448Z" fill="black"/>
<path d="M40.907 26.0014L45.5504 23.5155C45.6164 23.4801 45.6716 23.4276 45.7102 23.3635C45.7489 23.2994 45.7696 23.2261 45.7701 23.1512C45.7706 23.0763 45.7509 23.0027 45.7132 22.938C45.6754 22.8734 45.6209 22.8201 45.5554 22.7839L40.912 20.2164C40.8486 20.1813 40.777 20.1633 40.7045 20.1643C40.632 20.1654 40.561 20.1853 40.4986 20.2222C40.4361 20.259 40.3844 20.3116 40.3484 20.3746C40.3125 20.4376 40.2936 20.5088 40.2937 20.5814V25.6339C40.2937 25.7059 40.3123 25.7767 40.3478 25.8394C40.3833 25.902 40.4344 25.9544 40.4962 25.9914C40.558 26.0285 40.6283 26.0488 40.7003 26.0506C40.7723 26.0523 40.8435 26.0354 40.907 26.0014Z" fill="black"/>
</svg>
