<svg width="64" height="64" viewBox="0 0 64 64" fill="none" xmlns="http://www.w3.org/2000/svg">
<path d="M23.5394 26.5504C23.8103 26.7177 24.1194 26.8131 24.4375 26.8275C24.7555 26.8419 25.072 26.7748 25.3569 26.6327L28.7021 24.9591H37.6103C38.6021 24.9591 39.5534 24.5651 40.2547 23.8638C40.956 23.1624 41.3501 22.2112 41.3501 21.2193V13.7398C41.3501 12.7479 40.956 11.7967 40.2547 11.0954C39.5534 10.394 38.6021 10 37.6103 10H26.3909C25.3991 10 24.4479 10.394 23.7465 11.0954C23.0452 11.7967 22.6512 12.7479 22.6512 13.7398V24.9591C22.6512 25.2781 22.7328 25.5917 22.8883 25.8703C23.0438 26.1488 23.2679 26.3829 23.5394 26.5504Z" fill="black"/>
<path d="M18.9115 43.6576C23.0423 43.6576 26.391 40.3089 26.391 36.178C26.391 32.0472 23.0423 28.6985 18.9115 28.6985C14.7806 28.6985 11.4319 32.0472 11.4319 36.178C11.4319 40.3089 14.7806 43.6576 18.9115 43.6576Z" fill="black"/>
<path d="M27.6245 43.2465C26.5726 44.5434 25.2445 45.5892 23.737 46.3075C22.2295 47.0259 20.5807 47.3986 18.9108 47.3986C17.2409 47.3986 15.5921 47.0259 14.0846 46.3075C12.5771 45.5892 11.249 44.5434 10.1971 43.2465C8.06356 45.1481 6.612 47.6966 6.06465 50.5017C5.96428 51.026 5.98095 51.5661 6.11348 52.0833C6.24601 52.6005 6.49112 53.082 6.8313 53.4935C7.18566 53.9247 7.63086 54.2723 8.13511 54.5115C8.63937 54.7507 9.19022 54.8755 9.74833 54.8772H28.0732C28.6313 54.8755 29.1822 54.7507 29.6864 54.5115C30.1907 54.2723 30.6359 53.9247 30.9903 53.4935C31.3314 53.0825 31.577 52.601 31.7096 52.0837C31.8422 51.5663 31.8583 51.026 31.7569 50.5017C31.2096 47.6966 29.758 45.1481 27.6245 43.2465Z" fill="black"/>
<path d="M45.09 43.6576C49.2209 43.6576 52.5696 40.3089 52.5696 36.178C52.5696 32.0472 49.2209 28.6985 45.09 28.6985C40.9592 28.6985 37.6105 32.0472 37.6105 36.178C37.6105 40.3089 40.9592 43.6576 45.09 43.6576Z" fill="black"/>
<path d="M57.9357 50.5017C57.3884 47.6966 55.9368 45.1481 53.8033 43.2465C52.7514 44.5434 51.4233 45.5892 49.9158 46.3075C48.4083 47.0259 46.7595 47.3986 45.0896 47.3986C43.4197 47.3986 41.7709 47.0259 40.2634 46.3075C38.7559 45.5892 37.4278 44.5434 36.3759 43.2465C34.2424 45.1481 32.7908 47.6966 32.2434 50.5017C32.142 51.026 32.1582 51.5663 32.2907 52.0837C32.4233 52.601 32.669 53.0825 33.0101 53.4935C33.3645 53.9247 33.8097 54.2723 34.3139 54.5115C34.8182 54.7507 35.369 54.8755 35.9271 54.8772H54.252C54.8101 54.8755 55.361 54.7507 55.8652 54.5115C56.3695 54.2723 56.8147 53.9247 57.1691 53.4935C57.5092 53.082 57.7543 52.6005 57.8869 52.0833C58.0194 51.5661 58.0361 51.026 57.9357 50.5017Z" fill="black"/>
</svg>
