<svg width="160" height="160" viewBox="0 0 160 160" fill="none" xmlns="http://www.w3.org/2000/svg">
<circle cx="80" cy="80" r="80" fill="#2E2F31"/>
<path d="M54.3693 95V65.9091H65.5057C67.608 65.9091 69.3551 66.2405 70.7472 66.9034C72.1487 67.5568 73.1951 68.4517 73.8864 69.5881C74.5871 70.7244 74.9375 72.0123 74.9375 73.4517C74.9375 74.6354 74.7102 75.6487 74.2557 76.4915C73.8011 77.3248 73.1903 78.0019 72.4233 78.5227C71.6562 79.0436 70.7992 79.4176 69.8523 79.6449V79.929C70.8845 79.9858 71.8741 80.303 72.821 80.8807C73.7775 81.4489 74.5587 82.2538 75.1648 83.2955C75.7708 84.3371 76.0739 85.5966 76.0739 87.0739C76.0739 88.5795 75.7093 89.9337 74.9801 91.1364C74.2509 92.3295 73.1525 93.2718 71.6847 93.9631C70.2169 94.6544 68.3703 95 66.1449 95H54.3693ZM59.6392 90.5966H65.3068C67.2197 90.5966 68.5975 90.232 69.4403 89.5028C70.2926 88.7642 70.7188 87.8172 70.7188 86.6619C70.7188 85.8002 70.5057 85.0237 70.0795 84.3324C69.6534 83.6316 69.0473 83.0824 68.2614 82.6847C67.4754 82.2775 66.5379 82.0739 65.4489 82.0739H59.6392V90.5966ZM59.6392 78.2812H64.8523C65.7614 78.2812 66.5805 78.1155 67.3097 77.7841C68.0388 77.4432 68.6117 76.965 69.0284 76.3494C69.4545 75.7244 69.6676 74.9858 69.6676 74.1335C69.6676 73.0066 69.2699 72.0786 68.4744 71.3494C67.6884 70.6203 66.5189 70.2557 64.9659 70.2557H59.6392V78.2812ZM100.147 75.1989C99.9103 74.4318 99.5836 73.7453 99.1669 73.1392C98.7597 72.5237 98.2673 71.9981 97.6896 71.5625C97.1214 71.1269 96.468 70.8002 95.7294 70.5824C94.9908 70.3551 94.1858 70.2415 93.3146 70.2415C91.7521 70.2415 90.3601 70.6345 89.1385 71.4205C87.9169 72.2064 86.9557 73.3617 86.255 74.8864C85.5637 76.4015 85.218 78.2481 85.218 80.4261C85.218 82.6231 85.5637 84.4839 86.255 86.0085C86.9463 87.5331 87.9074 88.6932 89.1385 89.4886C90.3696 90.2746 91.7995 90.6676 93.4283 90.6676C94.9055 90.6676 96.1839 90.3835 97.2635 89.8153C98.3525 89.2472 99.1906 88.4422 99.7777 87.4006C100.365 86.3494 100.658 85.1184 100.658 83.7074L101.852 83.892H93.9538V79.7727H105.758V83.267C105.758 85.7576 105.228 87.9119 104.167 89.7301C103.106 91.5483 101.648 92.9498 99.7919 93.9347C97.9358 94.91 95.8052 95.3977 93.3999 95.3977C90.7199 95.3977 88.3667 94.7964 86.3402 93.5938C84.3232 92.3816 82.7464 90.6629 81.6101 88.4375C80.4832 86.2027 79.9197 83.5511 79.9197 80.483C79.9197 78.1345 80.2512 76.0369 80.9141 74.1903C81.5864 72.3438 82.5239 70.7765 83.7266 69.4886C84.9292 68.1913 86.3402 67.2064 87.9595 66.5341C89.5788 65.8523 91.3402 65.5114 93.2436 65.5114C94.8535 65.5114 96.3544 65.7481 97.7464 66.2216C99.1385 66.6856 100.374 67.3485 101.454 68.2102C102.543 69.072 103.438 70.0947 104.138 71.2784C104.839 72.4621 105.299 73.7689 105.516 75.1989H100.147Z" fill="white"/>
</svg>
