<svg width="64" height="64" viewBox="0 0 64 64" fill="none" xmlns="http://www.w3.org/2000/svg">
<path fill-rule="evenodd" clip-rule="evenodd" d="M43.2672 50.1916H20.7798V52.8083H43.2672V50.1916ZM41.625 54.6437H22.422V56.9596H41.625V54.6457V54.6437ZM26.4734 58.795V59.2206C26.4755 59.8892 26.7419 60.5298 27.2145 61.0027C27.6872 61.4755 28.3276 61.7423 28.9962 61.7447H35.0515C35.7196 61.7421 36.3596 61.4755 36.832 61.0031C37.3044 60.5307 37.571 59.8907 37.5736 59.2226V58.797L26.4734 58.795ZM34.7029 33.3808H36.6088C36.986 33.3809 37.3547 33.2692 37.6683 33.0597C37.982 32.8503 38.2264 32.5525 38.3708 32.2041C38.5152 31.8557 38.553 31.4723 38.4795 31.1024C38.4059 30.7325 38.2243 30.3927 37.9577 30.126C37.691 29.8594 37.3512 29.6778 36.9813 29.6042C36.6114 29.5307 36.228 29.5685 35.8796 29.7129C35.5312 29.8572 35.2334 30.1017 35.024 30.4154C34.8145 30.729 34.7028 31.0977 34.7029 31.4748V33.3808ZM29.2945 33.3808V31.4748C29.2945 31.0979 29.1827 30.7294 28.9733 30.416C28.7638 30.1025 28.4662 29.8582 28.1179 29.714C27.7697 29.5697 27.3864 29.532 27.0167 29.6055C26.647 29.6791 26.3074 29.8606 26.0408 30.1271C25.7743 30.3937 25.5928 30.7333 25.5192 31.103C25.4457 31.4727 25.4834 31.856 25.6277 32.2042C25.7719 32.5525 26.0162 32.8502 26.3297 33.0596C26.6431 33.269 27.0116 33.3808 27.3885 33.3808H29.2945ZM32.8668 48.3581V35.2162H31.1306V48.3581H32.8668ZM29.2945 48.3581H22.6139C22.5454 48.2583 22.4864 48.1523 22.4377 48.0415C22.3406 47.8233 22.2852 47.5889 22.2745 47.3503C22.2377 46.3812 22.0211 45.4275 21.6355 44.5377C21.2394 43.6451 20.6835 42.8324 19.9952 42.1396C17.6784 39.7758 16.1111 36.7806 15.4899 33.5296C14.8687 30.2786 15.2211 26.9165 16.5031 23.865C17.7851 20.8136 19.9394 18.2085 22.6961 16.3766C25.4527 14.5447 28.6889 13.5674 31.9987 13.5674C35.3085 13.5674 38.5447 14.5447 41.3013 16.3766C44.0579 18.2085 46.2123 20.8136 47.4943 23.865C48.7763 26.9165 49.1287 30.2786 48.5075 33.5296C47.8862 36.7806 46.319 39.7758 44.0022 42.1396C43.3139 42.8324 42.758 43.6451 42.3619 44.5377C41.9763 45.4275 41.7596 46.3812 41.7229 47.3503C41.7057 47.7113 41.5879 48.0604 41.3828 48.3581H34.7029V35.2162H36.6088C37.3488 35.2161 38.0721 34.9966 38.6873 34.5854C39.3025 34.1742 39.7819 33.5898 40.065 32.9062C40.348 32.2225 40.422 31.4703 40.2776 30.7445C40.1332 30.0188 39.7768 29.3522 39.2535 28.8291C38.7303 28.3059 38.0636 27.9496 37.3379 27.8053C36.6121 27.661 35.8599 27.7351 35.1763 28.0183C34.4927 28.3015 33.9084 28.7811 33.4973 29.3963C33.0862 30.0116 32.8668 30.7349 32.8668 31.4748V33.3808H31.1306V31.4748C31.1307 30.7347 30.9114 30.0112 30.5002 29.3957C30.0891 28.7802 29.5048 28.3005 28.821 28.0172C28.1373 27.7339 27.3848 27.6597 26.6589 27.804C25.933 27.9483 25.2662 28.3046 24.7428 28.8279C24.2194 29.3513 23.8629 30.018 23.7185 30.7439C23.574 31.4698 23.6481 32.2223 23.9313 32.9061C24.2145 33.5899 24.6941 34.1743 25.3095 34.5855C25.9249 34.9967 26.6484 35.2162 27.3885 35.2162H29.2945V48.3581ZM31.081 3.91772C31.081 3.67433 31.1777 3.4409 31.3498 3.26879C31.5219 3.09669 31.7553 3 31.9987 3C32.2421 3 32.4755 3.09669 32.6476 3.26879C32.8197 3.4409 32.9164 3.67433 32.9164 3.91772V7.78639C32.9164 8.02978 32.8197 8.26321 32.6476 8.43531C32.4755 8.60742 32.2421 8.70411 31.9987 8.70411C31.7553 8.70411 31.5219 8.60742 31.3498 8.43531C31.1777 8.26321 31.081 8.02978 31.081 7.78639V3.91772ZM17.678 7.99787C17.5573 7.78771 17.525 7.53819 17.5882 7.30421C17.6514 7.07022 17.805 6.87094 18.0152 6.75019C18.2253 6.62945 18.4749 6.59713 18.7088 6.66036C18.9428 6.72358 19.1421 6.87717 19.2628 7.08732L21.1975 10.441C21.2573 10.5451 21.296 10.6599 21.3114 10.7789C21.3268 10.8979 21.3186 11.0188 21.2873 11.1347C21.256 11.2505 21.2022 11.3591 21.129 11.4541C21.0557 11.5492 20.9644 11.6289 20.8604 11.6887C20.7563 11.7485 20.6415 11.7872 20.5225 11.8026C20.4035 11.818 20.2826 11.8098 20.1667 11.7785C20.0509 11.7472 19.9423 11.6934 19.8472 11.6201C19.7522 11.5469 19.6725 11.4556 19.6127 11.3515L17.678 7.99787ZM8.10919 18.2384C7.89904 18.1172 7.74562 17.9175 7.68271 17.6832C7.61979 17.4489 7.65252 17.1992 7.7737 16.9891C7.89488 16.7789 8.09458 16.6255 8.32887 16.5626C8.56316 16.4997 8.81284 16.5324 9.023 16.6536L12.3734 18.5876C12.5836 18.7088 12.737 18.9085 12.7999 19.1427C12.8628 19.377 12.8301 19.6267 12.7089 19.8369C12.5877 20.047 12.388 20.2004 12.1537 20.2634C11.9194 20.3263 11.6698 20.2936 11.4596 20.1724L8.10919 18.2384ZM4.94286 31.8919C4.82024 31.8952 4.6982 31.8739 4.58396 31.8292C4.46972 31.7845 4.36558 31.7174 4.2777 31.6319C4.18982 31.5463 4.11996 31.444 4.07227 31.331C4.02457 31.218 4 31.0965 4 30.9739C4 30.8512 4.02457 30.7298 4.07227 30.6168C4.11996 30.5038 4.18982 30.4015 4.2777 30.3159C4.36558 30.2303 4.46972 30.1632 4.58396 30.1186C4.6982 30.0739 4.82024 30.0526 4.94286 30.0558H8.81152C9.05076 30.0622 9.27807 30.1617 9.44503 30.3332C9.61199 30.5047 9.70541 30.7346 9.70541 30.9739C9.70541 31.2132 9.61199 31.4431 9.44503 31.6146C9.27807 31.786 9.05076 31.8856 8.81152 31.8919H4.94286ZM9.023 45.2962C8.81284 45.4173 8.56316 45.4501 8.32887 45.3872C8.09458 45.3242 7.89488 45.1708 7.7737 44.9607C7.65252 44.7505 7.61979 44.5008 7.68271 44.2665C7.74562 44.0322 7.89904 43.8325 8.10919 43.7114L11.4596 41.7774C11.5637 41.7174 11.6785 41.6784 11.7976 41.6628C11.9167 41.6472 12.0377 41.6552 12.1537 41.6864C12.2697 41.7175 12.3785 41.7712 12.4737 41.8444C12.569 41.9176 12.6489 42.0088 12.7089 42.1129C12.7689 42.2169 12.8078 42.3318 12.8234 42.4509C12.839 42.57 12.831 42.691 12.7999 42.807C12.7687 42.923 12.715 43.0317 12.6419 43.127C12.5687 43.2223 12.4775 43.3022 12.3734 43.3622L9.023 45.2962ZM55.8882 43.7114C55.9923 43.7714 56.0835 43.8513 56.1567 43.9465C56.2298 44.0418 56.2835 44.1505 56.3147 44.2665C56.3458 44.3825 56.3538 44.5035 56.3382 44.6226C56.3226 44.7417 56.2837 44.8566 56.2237 44.9607C56.1637 45.0647 56.0838 45.156 55.9885 45.2291C55.8933 45.3023 55.7845 45.356 55.6685 45.3872C55.5525 45.4183 55.4315 45.4263 55.3124 45.4107C55.1933 45.3951 55.0784 45.3562 54.9744 45.2962L51.624 43.3622C51.4138 43.241 51.2604 43.0413 51.1975 42.807C51.1346 42.5727 51.1673 42.323 51.2885 42.1129C51.4097 41.9027 51.6094 41.7493 51.8437 41.6864C52.0779 41.6235 52.3276 41.6562 52.5378 41.7774L55.8882 43.7094V43.7114ZM59.0571 30.0578C59.1798 30.0545 59.3018 30.0759 59.416 30.1205C59.5303 30.1652 59.6344 30.2323 59.7223 30.3179C59.8102 30.4034 59.88 30.5057 59.9277 30.6188C59.9754 30.7318 60 30.8532 60 30.9758C60 31.0985 59.9754 31.2199 59.9277 31.3329C59.88 31.446 59.8102 31.5483 59.7223 31.6338C59.6344 31.7194 59.5303 31.7865 59.416 31.8312C59.3018 31.8758 59.1798 31.8972 59.0571 31.8939H55.1859C54.9466 31.8875 54.7193 31.788 54.5524 31.6165C54.3854 31.445 54.292 31.2152 54.292 30.9758C54.292 30.7365 54.3854 30.5066 54.5524 30.3352C54.7193 30.1637 54.9466 30.0642 55.1859 30.0578H59.0571ZM54.9744 16.6536C55.1845 16.5324 55.4342 16.4997 55.6685 16.5626C55.9028 16.6255 56.1025 16.7789 56.2237 16.9891C56.3449 17.1992 56.3776 17.4489 56.3147 17.6832C56.2518 17.9175 56.0984 18.1172 55.8882 18.2384L52.5378 20.1724C52.4337 20.2324 52.3189 20.2713 52.1998 20.2869C52.0807 20.3025 51.9597 20.2945 51.8437 20.2634C51.7276 20.2322 51.6189 20.1785 51.5237 20.1053C51.4284 20.0322 51.3485 19.9409 51.2885 19.8369C51.2285 19.7328 51.1896 19.618 51.174 19.4989C51.1583 19.3798 51.1663 19.2587 51.1975 19.1427C51.2287 19.0267 51.2824 18.918 51.3555 18.8227C51.4287 18.7275 51.5199 18.6476 51.624 18.5876L54.9744 16.6536ZM44.7345 7.08732C44.8553 6.87717 45.0546 6.72358 45.2886 6.66036C45.5225 6.59713 45.7721 6.62945 45.9822 6.75019C46.1924 6.87094 46.346 7.07022 46.4092 7.30421C46.4724 7.53819 46.4401 7.78771 46.3193 7.99787L44.3847 11.3483C44.3279 11.4575 44.2496 11.5541 44.1545 11.6323C44.0595 11.7105 43.9496 11.7687 43.8314 11.8034C43.7133 11.838 43.5894 11.8485 43.4672 11.8341C43.3449 11.8197 43.2268 11.7808 43.12 11.7196C43.0132 11.6585 42.9198 11.5763 42.8455 11.4782C42.7712 11.3801 42.7174 11.2679 42.6875 11.1485C42.6577 11.0291 42.6522 10.9049 42.6715 10.7833C42.6908 10.6617 42.7345 10.5453 42.7999 10.441L44.7345 7.08732Z" fill="black"/>
</svg>
