<svg width="23" height="23" viewBox="0 0 23 23" fill="none" xmlns="http://www.w3.org/2000/svg">
<path fill-rule="evenodd" clip-rule="evenodd" d="M17.4539 14.8357L21.7539 19.1357V19.1347C22.1576 19.5407 22.1576 20.1966 21.7539 20.6027L20.5169 21.8177C20.3232 22.0123 20.0599 22.1217 19.7854 22.1217C19.5108 22.1217 19.2476 22.0123 19.0539 21.8177L14.7539 17.5177C14.5604 17.3225 14.4525 17.0585 14.4539 16.7837V16.0837C10.6975 18.9788 5.337 18.4517 2.2165 14.8803C-0.903998 11.309 -0.7073 5.92622 2.66554 2.59215C6.03838 -0.741915 11.4231 -0.876373 14.9581 2.2852C18.4931 5.44678 18.9582 10.813 16.0199 14.5357H16.7199C16.9947 14.5343 17.2587 14.6422 17.4539 14.8357ZM3.82347 11.1157C4.68007 13.1811 6.69691 14.5267 8.93287 14.5247C11.9818 14.5241 14.4533 12.0526 14.4539 9.00367C14.4559 6.7677 13.1103 4.75087 11.0449 3.89427C8.97951 3.03767 6.60147 3.51013 5.0204 5.0912C3.43933 6.67227 2.96687 9.05031 3.82347 11.1157Z" fill="#B8B8B8"/>
</svg>
